<svg width="116" height="20" viewBox="0 0 116 20" fill="none" xmlns="http://www.w3.org/2000/svg">
  <!-- Monitor frame -->
  <path d="M8.34483 1.66663C5.19664 1.66663 3.62254 1.66663 2.64451 2.64293C1.6665 3.61925 1.6665 5.19059 1.6665 8.33329C1.6665 11.476 1.6665 13.0474 2.64451 14.0237C3.62254 15 5.19664 15 8.34483 15H11.684C14.8322 15 16.4063 15 17.3843 14.0237C18.059 13.3502 18.2682 12.3936 18.3332 10.8333" stroke="#40404B" stroke-width="1.5" stroke-linecap="round"/>
  <path d="M10 15V18.3333" stroke="#40404B" stroke-width="1.5"/>
  <path d="M6.6665 18.3333H13.3332" stroke="#40404B" stroke-width="1.5" stroke-linecap="round"/>
  <path d="M9.1665 12.5H10.8332" stroke="#40404B" stroke-width="1.5" stroke-linecap="round" stroke-linejoin="round"/>
  <!-- AI sparkle — large -->
  <path d="M11.5278 3.40271L11.277 4.08037C10.9482 4.96896 10.7838 5.41327 10.4597 5.73741C10.1356 6.0615 9.69127 6.2259 8.80266 6.55475L8.125 6.80549L8.80266 7.05623C9.69127 7.38508 10.1356 7.54948 10.4597 7.87357C10.7838 8.19771 10.9482 8.64202 11.277 9.53058L11.5278 10.2082L11.7785 9.53058C12.1074 8.64202 12.2718 8.19771 12.5959 7.87357C12.92 7.54948 13.3643 7.38508 14.2529 7.05623L14.9306 6.80549L14.2529 6.55475C13.3643 6.2259 12.92 6.0615 12.5959 5.73741C12.2718 5.41327 12.1074 4.96896 11.7785 4.08037L11.5278 3.40271Z" stroke="#646CFF" stroke-linejoin="round"/>
  <!-- AI sparkle — small -->
  <path d="M15.4168 1.45837L15.3093 1.7488C15.1684 2.12963 15.098 2.32005 14.959 2.45895C14.8202 2.59786 14.6297 2.66832 14.2489 2.80924L13.9585 2.91671L14.2489 3.02418C14.6297 3.1651 14.8202 3.23556 14.959 3.37446C15.098 3.51336 15.1684 3.70378 15.3093 4.08461L15.4168 4.37504L15.5243 4.08461C15.6652 3.70378 15.7356 3.51336 15.8746 3.37446C16.0135 3.23556 16.2039 3.1651 16.5847 3.02418L16.8751 2.91671L16.5847 2.80924C16.2039 2.66832 16.0135 2.59786 15.8746 2.45895C15.7356 2.32005 15.6652 2.12963 15.5243 1.7488L15.4168 1.45837Z" stroke="#646CFF" stroke-width="0.6" stroke-linejoin="round"/>
  <!-- "AI" glyph paths — dark (for light backgrounds) -->
  <path d="M28.3838 14L27.7958 12.138H24.5338L23.9458 14H22.2798L25.4578 4.47998H26.9418L30.1338 14H28.3838ZM25.4438 9.22598L25.0098 10.598H27.3058L26.8718 9.22598L26.1718 6.81798L25.4438 9.22598ZM32.564 14H30.884V4.47998H32.564V14Z" fill="#40404B"/>
  <!-- "Demo Space" text in themed purple -->
  <text x="36" y="13.6" font-family="Inter, system-ui, -apple-system, BlinkMacSystemFont, sans-serif" font-size="9.6" font-weight="600" letter-spacing="-0.2" fill="#646CFF">Demo Space</text>
</svg>
